<?xml version="1.0" encoding="UTF-8"?><svg id="Layer_3" xmlns="http://www.w3.org/2000/svg" viewBox="0 0 3000 623.57"><defs><style>.cls-1{fill:#00f6ed;}.cls-2{fill:#1a5276;}.cls-3{fill:#0a1128;}</style></defs><g id="Layer_1"><path class="cls-2" d="M156.5,389.73c.01-2.57.82-3.83,2.14-3.83s2.99,1.17,4.92,3.48c99.2,118.73,267.85,139.18,390.96,61.34,19.77-12.51,38.38-27.55,55.33-45.13,4.38-.71,7.98-.06,10.44,2.14,2.87,2.58,3.79,6.97,3.02,12.52-3.29,6.91-7.39,13.37-11.98,18.17-20.17,21.21-42.73,38.8-66.86,52.75-116.75,67.49-270.22,49.91-367.83-52.75-11.58-12.13-20.12-34.81-20.13-48.68Z"/><path class="cls-2" d="M233.84,156.5c2.57,0,3.83.82,3.83,2.14s-1.17,2.99-3.48,4.92c-118.73,99.2-139.18,267.85-61.34,390.96,12.51,19.77,27.55,38.38,45.13,55.33.71,4.38.06,7.98-2.14,10.44-2.58,2.87-6.97,3.79-12.52,3.02-6.91-3.29-13.37-7.39-18.17-11.98-21.21-20.17-38.8-42.73-52.75-66.86-67.49-116.75-49.91-270.22,52.75-367.83,12.13-11.58,34.81-20.12,48.68-20.13Z"/><path class="cls-2" d="M467.06,233.84c-.01,2.57-.82,3.83-2.14,3.83s-2.99-1.17-4.92-3.48c-99.2-118.73-267.85-139.18-390.96-61.34-19.77,12.51-38.38,27.55-55.33,45.13-4.38.71-7.98.06-10.44-2.14-2.87-2.58-3.79-6.97-3.02-12.52,3.29-6.91,7.39-13.37,11.98-18.17,20.17-21.21,42.73-38.8,66.86-52.75,116.75-67.49,270.22-49.91,367.83,52.75,11.58,12.13,20.12,34.81,20.13,48.68Z"/><path class="cls-2" d="M389.73,467.06c-2.57-.01-3.83-.82-3.83-2.14s1.17-2.99,3.48-4.92c118.73-99.2,139.18-267.85,61.34-390.96-12.51-19.77-27.55-38.38-45.13-55.33-.71-4.38-.06-7.98,2.14-10.44,2.58-2.87,6.97-3.79,12.52-3.02,6.91,3.29,13.37,7.39,18.17,11.98,21.21,20.17,38.8,42.73,52.75,66.86,67.49,116.75,49.91,270.22-52.75,367.83-12.13,11.58-34.81,20.12-48.68,20.13Z"/><circle class="cls-1" cx="533.14" cy="478.11" r="50.47" transform="translate(-24.2 927.79) rotate(-80.78)"/><circle class="cls-1" cx="145.45" cy="533.14" r="50.47"/><circle class="cls-1" cx="90.43" cy="145.45" r="50.47"/><circle class="cls-1" cx="478.11" cy="90.43" r="50.47" transform="translate(312.27 547.88) rotate(-80.78)"/><rect class="cls-1" x="214.12" y="214.12" width="195.33" height="195.33" rx="97.66" ry="97.66"/><polygon class="cls-3" points="669.95 232.93 743.05 232.93 743.05 422.06 772.6 422.06 772.6 232.93 845.7 232.93 845.7 206.18 669.95 206.18 669.95 232.93"/><polygon class="cls-3" points="909.78 324.69 1013.99 324.69 1013.99 298.87 909.78 298.87 909.78 232.93 1022.7 232.93 1022.7 206.18 909.78 206.18 900.45 206.18 880.54 206.18 880.54 422.06 900.45 422.06 909.78 422.06 1024.26 422.06 1024.26 395.31 909.78 395.31 909.78 324.69"/><path class="cls-3" d="M1136.55,206.18l-88.66,215.88h31.42l19.55-48.84h95.67l19.47,48.84h31.73l-88.03-215.88h-21.15ZM1109.08,347.71l37.73-94.24,37.57,94.24h-75.29Z"/><path class="cls-3" d="M1397.23,390.49c-9.95,4.46-21.67,6.69-35.15,6.69-11.41,0-21.88-2.02-31.42-6.07-9.54-4.04-17.84-9.8-24.89-17.26-7.05-7.47-12.5-16.28-16.33-26.44-3.84-10.16-5.75-21.25-5.75-33.28s1.91-23.12,5.75-33.28c3.84-10.16,9.28-18.98,16.33-26.44,7.05-7.47,15.34-13.22,24.89-17.26,9.54-4.04,19.91-6.07,31.11-6.07,12.65,0,23.95,2.18,33.91,6.53,9.96,4.36,18.35,10.37,25.2,18.04l20.22-20.22c-9.95-9.95-21.36-17.83-34.22-23.64-12.86-5.8-27.89-8.71-45.11-8.71-15.35,0-29.66,2.85-42.93,8.55-13.27,5.71-24.78,13.59-34.53,23.64-9.75,10.06-17.32,21.83-22.71,35.31-5.4,13.48-8.09,28-8.09,43.55s2.69,29.76,8.09,43.24c5.39,13.48,13.01,25.3,22.86,35.46,9.85,10.16,21.41,18.1,34.68,23.8,13.27,5.7,27.69,8.55,43.24,8.55,16.8,0,31.88-2.91,45.26-8.71,13.38-5.8,25.04-13.79,35-23.95l-20.22-20.22c-6.84,7.68-15.24,13.74-25.2,18.2Z"/><polygon class="cls-3" points="1617.78 297.01 1507.66 297.01 1507.66 206.18 1478.42 206.18 1478.42 422.06 1507.66 422.06 1507.66 323.76 1617.78 323.76 1617.78 422.06 1647.02 422.06 1647.02 206.18 1617.78 206.18 1617.78 297.01"/><rect class="cls-3" x="1698.03" y="206.18" width="29.24" height="215.88"/><polygon class="cls-3" points="1918.89 365.9 1798.82 206.18 1778.29 206.18 1778.29 422.06 1807.53 422.06 1807.53 261.96 1927.6 422.06 1948.13 422.06 1948.13 206.18 1918.89 206.18 1918.89 365.9"/><path class="cls-3" d="M2094.64,334.03h74.73c-1.29,10.8-4.05,20.31-8.32,28.46-5.91,11.31-14.42,19.86-25.51,25.66-11.1,5.81-24.32,8.71-39.66,8.71s-27.89-3.52-39.51-10.58c-11.62-7.05-20.84-16.8-27.68-29.24-6.84-12.44-10.27-26.85-10.27-43.24s3.37-30.49,10.11-42.93c6.74-12.44,16.18-22.19,28.31-29.24,12.13-7.05,26.08-10.58,41.84-10.58,13.27,0,25.51,2.64,36.71,7.93,11.2,5.29,20.22,12.91,27.06,22.86l20.22-20.22c-9.75-12.44-21.88-21.98-36.39-28.62-14.52-6.64-30.38-9.96-47.59-9.96-15.76,0-30.33,2.8-43.71,8.4-13.38,5.6-25.04,13.48-35,23.64-9.95,10.16-17.73,21.93-23.33,35.31-5.6,13.38-8.4,27.84-8.4,43.4s2.8,30.07,8.4,43.55c5.6,13.48,13.32,25.3,23.17,35.46,9.85,10.16,21.36,18.1,34.53,23.8,13.17,5.7,27.22,8.55,42.15,8.55,20.32,0,38.31-4.25,53.97-12.75,15.65-8.5,27.89-21.2,36.71-38.11,8.81-16.9,13.22-37.9,13.22-62.99v-4.36h-105.76v27.06Z"/><polygon class="cls-2" points="2301.65 201.51 2245.97 201.51 2245.97 422.06 2290.45 422.06 2301.65 422.06 2396.53 422.06 2396.53 374.15 2301.65 374.15 2301.65 201.51"/><path class="cls-2" d="M2486.11,201.51l-85.86,220.55h57.55l13.46-38.57h81.84l13.27,38.57h58.48l-84.92-220.55h-53.81ZM2486.68,339.31l25.8-73.92,25.43,73.92h-51.22Z"/><path class="cls-2" d="M2785.57,304.49c4.29-2.42,8.14-5.2,11.46-8.41,10.06-9.75,15.09-21.88,15.09-36.4,0-10.99-2.7-20.84-8.09-29.55-5.4-8.71-13.07-15.66-23.02-20.84-9.96-5.18-21.88-7.78-35.77-7.78h-100.16v220.55h98.3c15.34,0,28.67-2.75,39.97-8.24,11.3-5.49,20.06-13.17,26.28-23.02,6.22-9.85,9.33-20.89,9.33-33.13,0-16.8-5.71-30.74-17.11-41.84-4.63-4.5-10.08-8.26-16.28-11.34ZM2731.86,242.88c7.26,0,13.22,1.87,17.89,5.6,4.67,3.73,7,9.44,7,17.11s-2.33,13.07-7,16.8c-4.67,3.73-10.73,5.6-18.2,5.6h-31.73v-45.11h32.04ZM2755.81,373.22c-5.19,4.98-11.93,7.47-20.22,7.47h-35.77v-52.88h35.15c6.01,0,11.09,1.14,15.24,3.42,4.14,2.28,7.41,5.34,9.8,9.18,2.38,3.84,3.58,8.45,3.58,13.84,0,7.67-2.6,14-7.78,18.98Z"/><path class="cls-2" d="M2994.4,327.8c-3.73-7.88-8.66-14.41-14.78-19.6-6.12-5.18-12.81-9.43-20.06-12.75-7.26-3.32-14.57-6.22-21.93-8.71-7.36-2.49-14.11-4.98-20.22-7.47-6.12-2.49-11.04-5.24-14.77-8.24-3.73-3-5.6-7-5.6-11.98s2.18-8.81,6.53-11.51c4.36-2.69,10.37-4.04,18.04-4.04,8.29,0,15.81,1.66,22.55,4.98,6.74,3.32,13.42,8.4,20.06,15.24l35.46-35.46c-8.51-9.54-19.55-17-33.13-22.4-13.58-5.39-28.36-8.09-44.33-8.09s-29.97,2.64-42,7.93c-12.03,5.29-21.41,13.02-28.15,23.17-6.74,10.16-10.11,22.19-10.11,36.08,0,11.2,1.87,20.48,5.6,27.84,3.73,7.36,8.66,13.58,14.78,18.66,6.11,5.09,12.8,9.28,20.06,12.6,7.26,3.32,14.62,6.22,22.09,8.71,7.47,2.49,14.2,4.98,20.22,7.47,6.01,2.49,10.94,5.4,14.78,8.71,3.83,3.32,5.75,7.67,5.75,13.06s-2.54,10.01-7.62,13.22c-5.09,3.22-12.29,4.82-21.62,4.82-10.99,0-20.84-2.18-29.55-6.53-8.71-4.36-16.8-10.47-24.26-18.35l-35.46,35.46c11.2,12.03,23.53,20.9,37.02,26.6,13.48,5.7,29.44,8.55,47.9,8.55,27.79,0,49.46-6.11,65.01-18.35,15.55-12.23,23.33-29.24,23.33-51.01,0-11.2-1.87-20.74-5.6-28.62Z"/></g></svg>